# AST/ASF file generated using VICON BodyLanguage
# -----------------------------------------------
:version 1.10
:name VICON
:units
  mass 1.0
  length 0.45
  angle deg
:documentation
   .ast/.asf automatically generated from VICON data using
   VICON BodyBuilder and BodyLanguage model FoxedUp or BRILLIANT.MOD
:root
   order TX TY TZ RX RY RZ
   axis XYZ
   position 0 0 0  
   orientation 0 0 0 
:bonedata
  begin
     id 1 
     name lhipjoint
     direction 0.635376 -0.686425 0.353719 
     length 2.47244 
     axis 0 0 0  XYZ
  end
  begin
     id 2 
     name lfemur
     direction 0.34202 -0.939693 0  
     length 7.25268  
     axis 0 0 20  XYZ
    dof rx ry rz
    limits (-160.0 20.0)
           (-70.0 70.0)
           (-60.0 70.0)
  end
  begin
     id 3 
     name ltibia
     direction 0.34202 -0.939693 0   
     length 7.6767   
     axis 0 0 20   XYZ
    dof rx
    limits (-10.0 170.0)
  end
  begin
     id 4 
     name lfoot
     direction 0.0803374 -0.220725 0.972022   
     length 2.22945   
     axis -90 7.62852e-016 20   XYZ
    dof rx rz
    limits (-45.0 90.0)
           (-70.0 20.0)
  end
  begin
     id 5 
     name ltoes
     direction 1.53579e-011 -4.21994e-011 1   
     length 1.11848   
     axis -90 7.62852e-016 20   XYZ
    dof rx
    limits (-90.0 20.0)
  end
  begin
     id 6 
     name rhipjoint
     direction -0.664428 -0.664335 0.342336   
     length 2.55466  
     axis 0 0 0  XYZ 
  end
  begin
     id 7 
     name rfemur
     direction -0.34202 -0.939693 0   
     length 6.83172   
     axis 0 0 -20   XYZ
    dof rx ry rz
    limits (-160.0 20.0)
           (-70.0 70.0)
           (-70.0 60.0)
  end
  begin
     id 8 
     name rtibia
     direction -0.34202 -0.939693 0   
     length 7.62692   
     axis 0 0 -20   XYZ
    dof rx
    limits (-10.0 170.0)
 end
 begin
     id 9 
     name rfoot
     direction -0.0949276 -0.260811 0.960711   
     length 2.19684  
     axis -90 -7.62852e-016 -20   XYZ
    dof rx rz
    limits (-45.0 90.0)
           (-20.0 70.0)
  end
  begin
     id 10 
     name rtoes
     direction -1.53543e-011 -4.2183e-011 1   
     length 1.09848   
     axis -90 -7.62852e-016 -20   XYZ
    dof rx
    limits (-90.0 20.0)
  end
  begin
     id 11 
     name lowerback
     direction 0.0118782 0.999815 -0.0151555   
     length 2.15772   
     axis 0 0 0   XYZ
    dof rx ry rz
    limits (-20.0 45.0)
           (-30.0 30.0)
           (-30.0 30.0)
  end
  begin
     id 12 
     name upperback
     direction 0.00130825 0.999065 0.0432113   
     length 2.14863   
     axis 0 0 0   XYZ
    dof rx ry rz
    limits (-20.0 45.0)
           (-30.0 30.0)
           (-30.0 30.0)
  end
  begin
     id 13 
     name thorax
     direction -0.00347005 0.998773 0.0494011   
     length 2.14936   
     axis 0 0 0   XYZ
    dof rx ry rz
    limits (-20.0 45.0)
           (-30.0 30.0)
           (-30.0 30.0)
  end
  begin
     id 14 
     name lowerneck
     direction -0.0262159 0.99424 0.103921   
     length 1.69373   
     axis 0 0 0   XYZ
    dof rx ry rz
    limits (-20.0 45.0)
           (-30.0 30.0)
           (-30.0 30.0)
  end
  begin
     id 15 
     name upperneck
     direction 0.0353511 0.977394 -0.20845   
     length 1.70857   
     axis 0 0 0   XYZ
    dof rx ry rz
    limits (-20.0 45.0)
           (-30.0 30.0)
           (-30.0 30.0)
  end
  begin
     id 16
     name head
     direction 0.0139214 0.996594 -0.0812836  
     length 1.72777  
     axis 0 0 0   XYZ
    dof rx ry rz
    limits (-20.0 45.0)
           (-30.0 30.0)
           (-30.0 30.0)
  end
  begin
     id 17 
     name lclavicle
     direction 0.841247 0.537205 -0.0609508  
     length 3.55371  
     axis 0 0 0   XYZ
    dof ry rz
    limits (-20.0 10.0)
           (0.0 20.0)
  end
  begin
     id 18 
     name lhumerus
     direction 1 -4.48964e-011 1.60116e-018   
     length 4.91377   
     axis -180 -30 -90   XYZ
    dof rx ry rz
    limits (-60.0 90.0)
           (-90.0 90.0)
           (-90.0 90.0)
  end
  begin
     id 19
     name lradius
     direction 1 -4.48989e-011 -8.93847e-027   
     length 3.00291   
     axis -180 -30 -90   XYZ
    dof rx
    limits (-10.0 170.0)
  end
  begin
     id 20
     name lwrist
     direction 1 -4.48932e-011 -7.31504e-027   
     length 1.50145   
     axis 5.74121e-015 90 90   XYZ
    dof ry
    limits (-180.0 0.0)
 end
  begin
     id 21 
     name lhand
     direction 1 -4.48971e-011 -1.46301e-026   
     length 0.450922   
     axis 9.33524e-015 90 90   XYZ
    dof rx rz
    limits (-90.0 90.0)
           (-45.0 45.0)
  end
  begin
     id 22 
     name lfingers
     direction 1 -4.49039e-011 -2.92602e-026   
     length 0.363545   
     axis 1.86705e-014 90 90   XYZ
    dof rx
    limits (0.0 90.0)
  end
  begin
     id 23
     name lthumb
     direction 0.707107 -6.34941e-011 0.707107   
     length 0.52198   
     axis -90 45 2.85299e-015   XYZ
    dof rx rz
    limits (-45.0 45.0)
           (-45.0 45.0)
  end
  begin
     id 24 
     name rclavicle
     direction -0.825079 0.56158 -0.0622297   
     length 3.39909  
     axis 0 0 0   XYZ 
    dof ry rz
    limits (-10.0 20.0)
           (-20.0 0.0)
  end
  begin
     id 25 
     name rhumerus
     direction -1 -4.48965e-011 1.61691e-027  
     length 4.86725   
     axis -180 30 90   XYZ
    dof rx ry rz
    limits (-90.0 60.0)
           (-90.0 90.0)
           (-90.0 90.0)
  end
  begin
     id 26 
     name rradius
     direction -1 -4.48964e-011 -2.25776e-027   
     length 3.17144   
     axis -180 30 90   XYZ
    dof rx
    limits (-10.0 170.0)
  end
  begin
     id 27 
     name rwrist
     direction -1 -4.48961e-011 -7.31504e-027   
     length 1.58572   
     axis 5.74121e-015 -90 -90   XYZ
    dof ry
    limits (-180.0 0.0)
  end
  begin
     id 28
     name rhand
     direction -1 -4.49013e-011 -1.46301e-026   
     length 0.419368   
     axis 9.33524e-015 -90 -90   XYZ
    dof rx rz
    limits (-90.0 90.0)
           (-45.0 45.0)
  end
  begin
     id 29
     name rfingers
     direction -1 -4.489e-011 -2.92602e-026   
     length 0.338105   
     axis 1.86705e-014 -90 -90   XYZ
    dof rx
    limits (0.0 90.0)
  end
  begin
     id 30
     name rthumb
     direction -0.707107 -6.35022e-011 0.707107   
     length 0.485453   
     axis -90 -45 -2.85299e-015   XYZ
    dof rx rz
    limits (-45.0 45.0)
           (-45.0 45.0)
  end
:hierarchy
  begin
    root lhipjoint rhipjoint lowerback
    lhipjoint lfemur
    lfemur ltibia
    ltibia lfoot
    lfoot ltoes
    rhipjoint rfemur
    rfemur rtibia
    rtibia rfoot
    rfoot rtoes
    lowerback upperback
    upperback thorax
    thorax lowerneck lclavicle rclavicle
    lowerneck upperneck
    upperneck head
    lclavicle lhumerus
    lhumerus lradius
    lradius lwrist
    lwrist lhand lthumb
    lhand lfingers
    rclavicle rhumerus
    rhumerus rradius
    rradius rwrist
    rwrist rhand rthumb
    rhand rfingers
  end

#!OML:ASF H:\Swim 2\Project 1\Capture day 1\Session 1\male.ASF
:FULLY-SPECIFIED
:DEGREES
157
root 1.71112 15.1338 9.98708 104.694 -52.2116 1.20597
lowerback -17.2798 7.17044 8.76888
upperback -10.092 8.52 -10.2165
thorax 1.42245 3.9057 -14.6746
lowerneck -13.7636 -4.36346 6.28728
upperneck 1.70945 -7.13641 3.84232
head 2.87161 -3.35463 -0.310465
rclavicle 6.67916e-014 -7.35503e-014
rhumerus -22.0266 11.3242 -62.7368
rradius 114.927
rwrist -25.0503
rhand -23.6587 3.19026
rfingers 7.12502
rthumb 2.80698 -26.771
lclavicle 6.67916e-014 -7.35503e-014
lhumerus 52.8672 -36.7396 11.6137
lradius 99.1107
lwrist 58.98
lhand -37.5987 -8.83651
lfingers 7.12502
lthumb -10.6522 20.8735
rfemur -50.5518 -0.228746 27.5839
rtibia 63.3857
rfoot 31.9307 -0.46628
rtoes 40.8213
lfemur -52.6754 9.69107 -25.3718
ltibia 70.434
lfoot 26.9658 -2.89057
ltoes 43.3145
158
root 1.67094 15.1233 10.0178 104.537 -52.1292 1.30085
lowerback -17.2679 7.17177 8.76195
upperback -9.91599 8.53034 -10.1034
thorax 1.59797 3.93499 -14.5189
lowerneck -13.5806 -4.33622 6.38646
upperneck 1.28432 -7.06696 3.58777
head 2.67731 -3.35256 -0.390519
rclavicle 7.95139e-014 7.43455e-014
rhumerus -22.4339 13.2843 -66.1152
rradius 113.546
rwrist -23.0738
rhand -24.916 4.26526
rfingers 7.12502
rthumb 1.59269 -25.7085
lclavicle 7.95139e-014 7.43455e-014
lhumerus 53.4813 -38.9435 9.68096
lradius 99.2306
lwrist 61.862
lhand -38.7469 -10.5922
lfingers 7.12502
lthumb -11.7596 19.0577
rfemur -50.2732 0.0785192 27.5994
rtibia 61.5903
rfoot 32.3408 -0.933223
rtoes 40.8824
lfemur -52.5686 9.29832 -25.1778
ltibia 68.9295
lfoot 27.1439 -2.41205
ltoes 43.7155
159
root 1.63128 15.1105 10.0487 104.335 -52.0518 1.41316
lowerback -17.2475 7.14574 8.79194
upperback -9.72323 8.49709 -9.98243
thorax 1.77673 3.94066 -14.3899
lowerneck -13.492 -4.29897 6.43172
upperneck 0.981625 -6.99376 3.38094
head 2.54829 -3.33961 -0.451154
rclavicle -7.63333e-014 4.41302e-014
rhumerus -22.8231 15.0773 -69.3624
rradius 111.836
rwrist -21.3106
rhand -26.234 5.32314
rfingers 7.12502
rthumb 0.319781 -24.6564
lclavicle -7.63333e-014 4.41302e-014
lhumerus 53.9923 -41.1992 7.59608
lradius 99.1766
lwrist 64.4753
lhand -39.8106 -12.712
lfingers 7.12502
lthumb -12.7852 16.8765
rfemur -49.977 0.389233 27.5956
rtibia 59.7103
rfoot 32.7751 -1.37936
rtoes 41.0085
lfemur -52.4436 8.87395 -24.9883
ltibia 67.3406
lfoot 27.3099 -1.97234
ltoes 43.8372
160
root 1.59265 15.0956 10.0792 104.098 -51.982 1.53312
lowerback -17.2229 7.09949 8.83653
upperback -9.51443 8.43343 -9.85631
thorax 1.96227 3.93083 -14.2725
lowerneck -13.4698 -4.26765 6.43091
upperneck 0.757113 -6.93432 3.22881
head 2.46259 -3.32701 -0.490962
rclavicle -9.54166e-015 -4.05521e-014
rhumerus -23.2882 16.6938 -72.4259
rradius 109.932
rwrist -19.9116
rhand -27.6143 6.37168
rfingers 7.12502
rthumb -1.01343 -23.6057
lclavicle -9.54166e-015 -4.05521e-014
lhumerus 54.4506 -43.5348 5.36228
lradius 98.906
lwrist 66.7095
lhand -40.8538 -15.1222
lfingers 7.12502
lthumb -13.7907 14.4007
rfemur -49.6752 0.7065 27.5692
rtibia 57.7725
rfoot 33.2001 -1.77836
rtoes 41.2139
lfemur -52.3081 8.42169 -24.8075
ltibia 65.686
lfoot 27.4364 -1.59582
ltoes 43.6232
161
root 1.5554 15.0788 10.109 103.84 -51.9164 1.64568
lowerback -17.1946 7.04299 8.88053
upperback -9.29379 8.35566 -9.72842
thorax 2.15423 3.91444 -14.1569
lowerneck -13.4758 -4.26172 6.39097
upperneck 0.567978 -6.91078 3.15019
head 2.3979 -3.32767 -0.50424
rclavicle -4.77083e-015 -1.308e-013
rhumerus -23.9144 18.1135 -75.276
rradius 107.933
rwrist -18.9168
rhand -28.9181 7.50063
rfingers 7.12502
rthumb -2.27257 -22.467
lclavicle -4.77083e-015 -1.308e-013
lhumerus 54.925 -45.9684 2.96235
lradius 98.3852
lwrist 68.486
lhand -41.9073 -17.7128
lfingers 7.12502
lthumb -14.8059 11.7383
rfemur -49.3764 1.0347 27.5267
rtibia 55.8028
rfoot 33.5845 -2.11261
rtoes 41.448
lfemur -52.1688 7.96002 -24.634
ltibia 63.9881
lfoot 27.4982 -1.30474
ltoes 43.0466
162
root 1.51939 15.0604 10.1386 103.572 -51.8621 1.73705
lowerback -17.1609 6.98381 8.91129
upperback -9.06439 8.27659 -9.60524
thorax 2.35186 3.89842 -14.0398
lowerneck -13.4776 -4.26611 6.37406
upperneck 0.356871 -6.90392 3.07028
head 2.32394 -3.3376 -0.522019
rclavicle 4.13472e-014 -7.27552e-014
rhumerus -24.7296 19.3243 -77.9056
rradius 105.875
rwrist -18.3191
rhand -29.9403 8.80597
rfingers 7.12502
rthumb -3.25985 -21.1489
lclavicle 4.13472e-014 -7.27552e-014
lhumerus 55.487 -48.5062 0.373475
lradius 97.5895
lwrist 69.7687
lhand -42.9863 -20.3433
lfingers 7.12502
lthumb -15.8452 9.02831
rfemur -49.0891 1.36549 27.4657
rtibia 53.8247
rfoot 33.9193 -2.37623
rtoes 41.6449
lfemur -52.0265 7.49791 -24.4725
ltibia 62.2697
lfoot 27.4712 -1.04434
ltoes 42.2115
163
root 1.48454 15.0407 10.1678 103.305 -51.8218 1.79476
lowerback -17.1144 6.92581 8.92077
upperback -8.83071 8.20336 -9.48803
thorax 2.54786 3.88599 -13.9164
lowerneck -13.4773 -4.2687 6.40232
upperneck 0.0951913 -6.89931 2.96467
head 2.23008 -3.35173 -0.554397
rclavicle -9.85972e-014 -6.63941e-014
rhumerus -25.7213 20.3265 -80.3123
rradius 103.744
rwrist -18.0693
rhand -30.6329 10.2939
rfingers 7.12502
rthumb -3.92867 -19.6496
lclavicle -9.85972e-014 -6.63941e-014
lhumerus 56.1843 -51.1371 -2.41619
lradius 96.5257
lwrist 70.5939
lhand -44.0997 -22.8648
lfingers 7.12502
lthumb -16.9171 6.41846
rfemur -48.822 1.69501 27.3913
rtibia 51.8618
rfoot 34.2048 -2.58817
rtoes 41.7484
lfemur -51.8859 7.04918 -24.3276
ltibia 60.5532
lfoot 27.3457 -0.790837
ltoes 41.2014
164
root 1.45101 15.0198 10.1971 103.042 -51.7914 1.81456
lowerback -17.046 6.87412 8.92813
upperback -8.59705 8.14111 -9.38427
thorax 2.73739 3.87902 -13.807
lowerneck -13.4502 -4.27026 6.46591
upperneck -0.225658 -6.89451 2.84195
head 2.10984 -3.36914 -0.595692
rclavicle -2.54444e-014 -1.35174e-013
rhumerus -26.8304 21.1402 -82.5009
rradius 101.49
rwrist -18.0304
rhand -31.1943 11.7709
rfingers 7.12502
rthumb -4.47071 -18.1619
lclavicle -2.54444e-014 -1.35174e-013
lhumerus 57.0706 -53.8409 -5.43272
lradius 95.2124
lwrist 71.0398
lhand -45.227 -25.1059
lfingers 7.12502
lthumb -18.0021 4.08098
rfemur -48.5794 2.01193 27.312
rtibia 49.9345
rfoot 34.4629 -2.77789
rtoes 41.7956
lfemur -51.7544 6.63914 -24.2049
ltibia 58.8627
lfoot 27.1393 -0.536008
ltoes 40.1132
165
root 1.41855 14.9979 10.2263 102.796 -51.7714 1.79008
lowerback -16.9567 6.83002 8.94046
upperback -8.37018 8.09033 -9.29731
thorax 2.91476 3.87689 -13.72
lowerneck -13.3947 -4.2595 6.56257
upperneck -0.603469 -6.87406 2.69526
head 1.96428 -3.38218 -0.646781
rclavicle 5.88403e-014 -1.59823e-013
rhumerus -28.0105 21.7859 -84.4832
rradius 99.0686
rwrist -18.1163
rhand -31.5471 13.2524
rfingers 7.12502
rthumb -4.8114 -16.673
lclavicle 5.88403e-014 -1.59823e-013
lhumerus 58.1891 -56.5943 -8.7044
lradius 93.6821
lwrist 71.2265
lhand -46.3477 -26.9669
lfingers 7.12502
lthumb -19.0801 2.11719
rfemur -48.3698 2.30927 27.2332
rtibia 48.0635
rfoot 34.7091 -2.94052
rtoes 41.7388
lfemur -51.6417 6.27489 -24.1116
ltibia 57.2209
lfoot 26.8644 -0.244446
ltoes 39.0716
166
root 1.38699 14.975 10.2557 102.566 -51.7515 1.72371
lowerback -16.8446 6.79172 8.97603
upperback -8.1577 8.04537 -9.22359
thorax 3.0704 3.87539 -13.6643
lowerneck -13.292 -4.24298 6.64753
upperneck -1.03194 -6.83998 2.56703
head 1.79555 -3.3902 -0.686255
rclavicle -1.01778e-013 6.63941e-014
rhumerus -29.2082 22.3017 -86.2622
rradius 96.4352
rwrist -18.3011
rhand -32.1366 14.4203
rfingers 7.12502
rthumb -5.38063 -15.4914
lclavicle -1.01778e-013 6.63941e-014
lhumerus 59.5719 -59.3777 -12.256
lradius 91.9876
lwrist 71.3121
lhand -47.4421 -28.3843
lfingers 7.12502
lthumb -20.1322 0.592533
rfemur -48.1938 2.57761 27.1685
rtibia 46.2661
rfoot 34.968 -3.06637
rtoes 41.5967
lfemur -51.5564 5.9647 -24.0409
ltibia 55.652
lfoot 26.5524 0.0392538
ltoes 38.0414
